<svg width="803" height="280" viewBox="0 0 803 280" fill="none" xmlns="http://www.w3.org/2000/svg"><g clip-path="url(#a)"><path d="M0 0h803v280H0z"/><path d="M332.3 172.8c1 0 1.833-.107 2.5-.32.68-.227 1.227-.533 1.64-.92.413-.387.707-.84.88-1.36.173-.52.26-1.08.26-1.68 0-.653-.087-1.247-.26-1.78a2.954 2.954 0 0 0-.88-1.34c-.413-.373-.953-.66-1.62-.86-.667-.2-1.5-.3-2.5-.3h-4.72v8.56h4.7zm.02-12.76c1.88 0 3.487.207 4.82.62 1.347.413 2.44.98 3.28 1.7.853.707 1.48 1.547 1.88 2.52.4.96.6 1.993.6 3.1 0 1.36-.24 2.593-.72 3.7a7.82 7.82 0 0 1-2.06 2.86c-.907.787-2.02 1.393-3.34 1.82-1.307.427-2.8.64-4.48.64h-10.08v-28.92h19.62v4.16H327.6v7.8h4.72zm24.495 2.58c.987 0 1.847-.12 2.58-.36.734-.253 1.34-.607 1.82-1.06a4.334 4.334 0 0 0 1.1-1.68c.24-.667.36-1.407.36-2.22 0-.773-.12-1.473-.36-2.1s-.6-1.16-1.08-1.6c-.48-.44-1.086-.773-1.82-1-.733-.24-1.6-.36-2.6-.36h-4.02v10.38h4.02zm0-14.54c1.934 0 3.607.227 5.02.68 1.414.453 2.58 1.087 3.5 1.9.92.813 1.6 1.787 2.04 2.92.454 1.133.68 2.373.68 3.72 0 1.4-.233 2.687-.7 3.86a7.991 7.991 0 0 1-2.1 3c-.933.84-2.106 1.493-3.52 1.96-1.4.467-3.04.7-4.92.7h-4.02V177h-5.38v-28.92h9.4zm20.766 4.28v8.02h10.12v4.14h-10.12v8.18h12.84v4.3h-18.24v-28.92h18.24v4.28h-12.84zm36.843 17.82c.293 0 .553.113.78.34l2.12 2.3a11.63 11.63 0 0 1-4.34 3.34c-1.707.773-3.76 1.16-6.16 1.16-2.147 0-4.08-.367-5.8-1.1-1.707-.733-3.167-1.753-4.38-3.06-1.214-1.307-2.147-2.867-2.8-4.68-.64-1.813-.96-3.793-.96-5.94 0-2.173.346-4.16 1.04-5.96.693-1.813 1.666-3.373 2.92-4.68 1.266-1.307 2.773-2.32 4.52-3.04 1.746-.733 3.68-1.1 5.8-1.1 2.106 0 3.973.347 5.6 1.04 1.64.693 3.033 1.6 4.18 2.72l-1.8 2.5c-.107.16-.247.3-.42.42-.16.12-.387.18-.68.18-.2 0-.407-.053-.62-.16a15.57 15.57 0 0 1-.7-.42c-.254-.173-.547-.36-.88-.56-.334-.2-.72-.38-1.16-.54a8.31 8.31 0 0 0-1.54-.42c-.574-.12-1.24-.18-2-.18-1.294 0-2.48.233-3.56.7a7.57 7.57 0 0 0-2.76 2c-.774.867-1.374 1.933-1.8 3.2-.427 1.253-.64 2.687-.64 4.3 0 1.627.226 3.073.68 4.34.466 1.267 1.093 2.333 1.88 3.2a8.09 8.09 0 0 0 2.78 2 8.705 8.705 0 0 0 3.44.68c.733 0 1.393-.04 1.98-.12.6-.08 1.146-.207 1.64-.38a7.25 7.25 0 0 0 1.42-.66c.453-.28.9-.62 1.34-1.02.133-.12.273-.213.42-.28.146-.08.3-.12.46-.12zm26.785-17.68h-8.72V177h-5.38v-24.5h-8.72v-4.42h22.82v4.42zm22.668 17.68c.293 0 .553.113.78.34l2.12 2.3a11.63 11.63 0 0 1-4.34 3.34c-1.707.773-3.76 1.16-6.16 1.16-2.147 0-4.08-.367-5.8-1.1-1.707-.733-3.167-1.753-4.38-3.06-1.213-1.307-2.147-2.867-2.8-4.68-.64-1.813-.96-3.793-.96-5.94 0-2.173.347-4.16 1.04-5.96.693-1.813 1.667-3.373 2.92-4.68 1.267-1.307 2.773-2.32 4.52-3.04 1.746-.733 3.68-1.1 5.8-1.1 2.107 0 3.973.347 5.6 1.04 1.64.693 3.033 1.6 4.18 2.72l-1.8 2.5c-.107.16-.247.3-.42.42-.16.12-.387.18-.68.18-.2 0-.407-.053-.62-.16a15.57 15.57 0 0 1-.7-.42 17.92 17.92 0 0 0-.88-.56c-.334-.2-.72-.38-1.16-.54a8.31 8.31 0 0 0-1.54-.42c-.574-.12-1.24-.18-2-.18-1.294 0-2.48.233-3.56.7a7.57 7.57 0 0 0-2.76 2c-.774.867-1.374 1.933-1.8 3.2-.427 1.253-.64 2.687-.64 4.3 0 1.627.226 3.073.68 4.34.466 1.267 1.093 2.333 1.88 3.2a8.1 8.1 0 0 0 2.78 2 8.708 8.708 0 0 0 3.44.68c.733 0 1.393-.04 1.98-.12.6-.08 1.146-.207 1.64-.38a7.25 7.25 0 0 0 1.42-.66c.453-.28.9-.62 1.34-1.02.133-.12.273-.213.42-.28.146-.08.3-.12.46-.12zm31.125 6.82h-4.88c-.507 0-.933-.133-1.28-.4-.333-.267-.647-.66-.94-1.18l-6.16-9.72a2.832 2.832 0 0 0-.52-.68 2.026 2.026 0 0 0-.58-.44c-.2-.12-.433-.2-.7-.24a5.703 5.703 0 0 0-.88-.06h-3.22V177h-5.38v-28.92h5.38v12.12h2.72c.547 0 1.02-.093 1.42-.28.4-.187.773-.533 1.12-1.04l6.34-9.36c.267-.427.58-.773.94-1.04s.793-.4 1.3-.4h4.6l-7.86 11.6c-.333.507-.72.927-1.16 1.26-.44.333-.927.593-1.46.78.8.227 1.473.587 2.02 1.08.56.48 1.093 1.147 1.6 2l7.58 12.2zm27.692-28.92V177h-5.4v-18.12c0-.68.013-1.393.04-2.14.04-.747.12-1.54.24-2.38-.267.747-.56 1.44-.88 2.08a20.53 20.53 0 0 1-.9 1.66l-11.06 17.24c-.12.2-.267.4-.44.6-.16.2-.34.38-.54.54-.2.147-.42.273-.66.38-.24.093-.487.14-.74.14h-4.04v-28.92h5.4v18.12c0 .68-.02 1.4-.06 2.16-.027.747-.1 1.54-.22 2.38.266-.747.553-1.44.86-2.08.32-.64.633-1.2.94-1.68l11.04-17.24c.12-.2.26-.4.42-.6.173-.2.36-.373.56-.52a2.6 2.6 0 0 1 .64-.38c.24-.107.493-.16.76-.16h4.04zm30.82 0V177h-5.4v-18.12c0-.68.013-1.393.04-2.14.04-.747.12-1.54.24-2.38-.267.747-.56 1.44-.88 2.08a20.53 20.53 0 0 1-.9 1.66l-11.06 17.24c-.12.2-.267.4-.44.6-.16.2-.34.38-.54.54-.2.147-.42.273-.66.38-.24.093-.487.14-.74.14h-4.04v-28.92h5.4v18.12c0 .68-.02 1.4-.06 2.16-.027.747-.1 1.54-.22 2.38.267-.747.553-1.44.86-2.08.32-.64.633-1.2.94-1.68l11.04-17.24c.12-.2.26-.4.42-.6.173-.2.36-.373.56-.52a2.6 2.6 0 0 1 .64-.38c.24-.107.493-.16.76-.16h4.04zm-11.94-4.18c.493 0 .907-.047 1.24-.14.333-.093.6-.253.8-.48.2-.24.34-.56.42-.96.08-.4.12-.907.12-1.52h2.92c.347 0 .6.147.76.44.173.293.26.613.26.96 0 .68-.153 1.28-.46 1.8-.307.52-.747.953-1.32 1.3-.573.347-1.26.613-2.06.8-.8.173-1.693.26-2.68.26-.987 0-1.88-.087-2.68-.26-.8-.187-1.487-.453-2.06-.8-.573-.347-1.013-.78-1.32-1.3-.307-.52-.46-1.12-.46-1.8 0-.347.08-.667.24-.96a.849.849 0 0 1 .78-.44h2.92c0 .613.04 1.12.12 1.52.08.4.22.72.42.96.2.227.46.387.78.48.333.093.753.14 1.26.14zM320.14 199.52c1.133-1.12 2.513-2.027 4.14-2.72 1.64-.693 3.513-1.04 5.62-1.04 2.12 0 4.053.367 5.8 1.1 1.76.72 3.267 1.733 4.52 3.04 1.267 1.307 2.247 2.867 2.94 4.68.693 1.8 1.04 3.787 1.04 5.96 0 2.147-.327 4.127-.98 5.94-.653 1.813-1.587 3.373-2.8 4.68-1.2 1.307-2.66 2.327-4.38 3.06-1.72.733-3.647 1.1-5.78 1.1-2.387 0-4.447-.387-6.18-1.16a11.621 11.621 0 0 1-4.34-3.34l2.14-2.3c.213-.227.467-.34.76-.34s.593.133.9.4c.44.4.88.74 1.32 1.02.453.267.927.487 1.42.66.507.173 1.053.3 1.64.38.6.08 1.267.12 2 .12a8.642 8.642 0 0 0 3.12-.56 7.76 7.76 0 0 0 2.62-1.64c.773-.72 1.413-1.6 1.92-2.64.52-1.053.86-2.253 1.02-3.6h-13.4v-4h13.34c-.187-1.267-.527-2.393-1.02-3.38-.493-1-1.113-1.84-1.86-2.52a7.565 7.565 0 0 0-2.58-1.54c-.96-.36-2.007-.54-3.14-.54-1.147 0-2.093.12-2.84.36-.747.24-1.373.5-1.88.78-.493.28-.907.54-1.24.78-.333.24-.647.36-.94.36-.293 0-.527-.06-.7-.18-.16-.12-.3-.26-.42-.42l-1.78-2.5zM371.556 225h-5.42v-24.78h-7.9c-.187 3.627-.454 6.767-.8 9.42-.334 2.64-.74 4.893-1.22 6.76-.467 1.853-1.007 3.36-1.62 4.52-.6 1.16-1.26 2.067-1.98 2.72-.72.64-1.494 1.08-2.32 1.32a9.781 9.781 0 0 1-2.6.34c-.96 0-1.66-.087-2.1-.26-.44-.173-.66-.427-.66-.76v-3.36h1.54c.346 0 .693-.04 1.04-.12.36-.08.713-.247 1.06-.5.36-.267.706-.647 1.04-1.14.346-.493.673-1.153.98-1.98.32-.84.613-1.867.88-3.08.28-1.213.526-2.673.74-4.38.226-1.707.42-3.68.58-5.92.173-2.253.3-4.827.38-7.72h18.38V225zm11.845-24.64v8.02h10.12v4.14h-10.12v8.18h12.84v4.3h-18.24v-28.92h18.24v4.28h-12.84zM425.549 225h-4.88c-.507 0-.933-.133-1.28-.4-.333-.267-.647-.66-.94-1.18l-6.16-9.72a2.832 2.832 0 0 0-.52-.68 2.026 2.026 0 0 0-.58-.44c-.2-.12-.433-.2-.7-.24a5.703 5.703 0 0 0-.88-.06h-3.22V225h-5.38v-28.92h5.38v12.12h2.72c.547 0 1.02-.093 1.42-.28.4-.187.773-.533 1.12-1.04l6.34-9.36c.267-.427.58-.773.94-1.04s.793-.4 1.3-.4h4.6l-7.86 11.6c-.333.507-.72.927-1.16 1.26-.44.333-.927.593-1.46.78.8.227 1.473.587 2.02 1.08.56.48 1.093 1.147 1.6 2l7.58 12.2zm23.512-24.5h-8.72V225h-5.38v-24.5h-8.72v-4.42h22.82v4.42zm13.184 10.12c.987 0 1.847-.12 2.58-.36.733-.253 1.34-.607 1.82-1.06a4.345 4.345 0 0 0 1.1-1.68c.24-.667.36-1.407.36-2.22 0-.773-.12-1.473-.36-2.1s-.6-1.16-1.08-1.6c-.48-.44-1.087-.773-1.82-1-.733-.24-1.6-.36-2.6-.36h-4.02v10.38h4.02zm0-14.54c1.933 0 3.607.227 5.02.68 1.413.453 2.58 1.087 3.5 1.9.92.813 1.6 1.787 2.04 2.92.453 1.133.68 2.373.68 3.72 0 1.4-.233 2.687-.7 3.86a8.014 8.014 0 0 1-2.1 3c-.933.84-2.107 1.493-3.52 1.96-1.4.467-3.04.7-4.92.7h-4.02V225h-5.38v-28.92h9.4zm42.946 14.46c0 2.12-.354 4.087-1.06 5.9-.694 1.8-1.68 3.36-2.96 4.68-1.28 1.32-2.82 2.353-4.62 3.1-1.8.733-3.8 1.1-6 1.1-2.187 0-4.18-.367-5.98-1.1-1.8-.747-3.347-1.78-4.64-3.1-1.28-1.32-2.274-2.88-2.98-4.68-.707-1.813-1.06-3.78-1.06-5.9 0-2.12.353-4.08 1.06-5.88.706-1.813 1.7-3.38 2.98-4.7 1.293-1.32 2.84-2.347 4.64-3.08 1.8-.747 3.793-1.12 5.98-1.12 1.466 0 2.846.173 4.14.52a14.01 14.01 0 0 1 3.56 1.44 12.592 12.592 0 0 1 2.9 2.26c.866.88 1.6 1.867 2.2 2.96.6 1.093 1.053 2.28 1.36 3.56.32 1.28.48 2.627.48 4.04zm-5.5 0c0-1.587-.214-3.007-.64-4.26-.427-1.267-1.034-2.34-1.82-3.22a7.784 7.784 0 0 0-2.88-2.02c-1.12-.467-2.387-.7-3.8-.7-1.414 0-2.687.233-3.82.7a8.002 8.002 0 0 0-2.88 2.02c-.787.88-1.394 1.953-1.82 3.22-.427 1.253-.64 2.673-.64 4.26 0 1.587.213 3.013.64 4.28.426 1.253 1.033 2.32 1.82 3.2.8.867 1.76 1.533 2.88 2 1.133.467 2.406.7 3.82.7 1.413 0 2.68-.233 3.8-.7a7.89 7.89 0 0 0 2.88-2c.786-.88 1.393-1.947 1.82-3.2.426-1.267.64-2.693.64-4.28zm29.448-10.04h-8.72V225h-5.38v-24.5h-8.72v-4.42h22.82v4.42zm9.184-.14v8.02h10.12v4.14h-10.12v8.18h12.84v4.3h-18.24v-28.92h18.24v4.28h-12.84zM579.431 225h-5.36c-.373 0-.673-.093-.9-.28a2.391 2.391 0 0 1-.52-.64l-6.7-11.1c-.107.333-.233.62-.38.86l-6.42 10.24a4.19 4.19 0 0 1-.56.64c-.2.187-.467.28-.8.28h-5.02l9.6-14.88-9.22-14.04h5.36c.373 0 .64.053.8.16.173.093.333.253.48.48l6.58 10.6c.133-.333.293-.667.48-1l6.04-9.5c.147-.253.307-.44.48-.56.173-.12.393-.18.66-.18h5.14l-9.3 13.82 9.56 15.1zm27.716-28.92V225h-5.4v-12.64h-13.58V225h-5.4v-28.92h5.4v12.44h13.58v-12.44h5.4zm30.82 0V225h-5.4v-18.12c0-.68.013-1.393.04-2.14.04-.747.12-1.54.24-2.38-.266.747-.56 1.44-.88 2.08-.307.627-.606 1.18-.9 1.66l-11.06 17.24c-.12.2-.266.4-.44.6-.16.2-.34.38-.54.54-.2.147-.42.273-.66.38a2.03 2.03 0 0 1-.74.14h-4.04v-28.92h5.4v18.12c0 .68-.02 1.4-.06 2.16-.027.747-.1 1.54-.22 2.38.267-.747.554-1.44.86-2.08.32-.64.634-1.2.94-1.68l11.04-17.24c.12-.2.26-.4.42-.6.173-.2.36-.373.56-.52a2.6 2.6 0 0 1 .64-.38c.24-.107.493-.16.76-.16h4.04zm27.04 0V225h-5.42v-11.58c-1.56.387-3.06.673-4.5.86a21.957 21.957 0 0 1-4.02.18c-1.24-.067-2.373-.273-3.4-.62-1.026-.36-1.906-.893-2.64-1.6-.72-.707-1.28-1.6-1.68-2.68-.4-1.093-.6-2.407-.6-3.94v-9.54h5.42v9.54c0 1.12.194 2.053.58 2.8.387.733 1.02 1.273 1.9 1.62.894.347 2.067.487 3.52.42 1.467-.067 3.274-.36 5.42-.88v-13.5h5.42zm11.832 4.28v8.02h10.12v4.14h-10.12v8.18h12.84v4.3h-18.24v-28.92h18.24v4.28h-12.84zm36.843 17.82c.293 0 .553.113.78.34l2.12 2.3a11.63 11.63 0 0 1-4.34 3.34c-1.707.773-3.76 1.16-6.16 1.16-2.147 0-4.08-.367-5.8-1.1-1.707-.733-3.167-1.753-4.38-3.06-1.214-1.307-2.147-2.867-2.8-4.68-.64-1.813-.96-3.793-.96-5.94 0-2.173.346-4.16 1.04-5.96.693-1.813 1.666-3.373 2.92-4.68 1.266-1.307 2.773-2.32 4.52-3.04 1.746-.733 3.68-1.1 5.8-1.1 2.106 0 3.973.347 5.6 1.04 1.64.693 3.033 1.6 4.18 2.72l-1.8 2.5c-.107.16-.247.3-.42.42-.16.12-.387.18-.68.18-.2 0-.407-.053-.62-.16a15.57 15.57 0 0 1-.7-.42c-.254-.173-.547-.36-.88-.56-.334-.2-.72-.38-1.16-.54a8.31 8.31 0 0 0-1.54-.42c-.574-.12-1.24-.18-2-.18-1.294 0-2.48.233-3.56.7a7.57 7.57 0 0 0-2.76 2c-.774.867-1.374 1.933-1.8 3.2-.427 1.253-.64 2.687-.64 4.3 0 1.627.226 3.073.68 4.34.466 1.267 1.093 2.333 1.88 3.2a8.09 8.09 0 0 0 2.78 2 8.705 8.705 0 0 0 3.44.68c.733 0 1.393-.04 1.98-.12.6-.08 1.146-.207 1.64-.38a7.25 7.25 0 0 0 1.42-.66c.453-.28.9-.62 1.34-1.02.133-.12.273-.213.42-.28.146-.08.3-.12.46-.12zm31.125 6.82h-4.88c-.507 0-.933-.133-1.28-.4-.333-.267-.647-.66-.94-1.18l-6.16-9.72a2.832 2.832 0 0 0-.52-.68 2.026 2.026 0 0 0-.58-.44c-.2-.12-.433-.2-.7-.24a5.703 5.703 0 0 0-.88-.06h-3.22V225h-5.38v-28.92h5.38v12.12h2.72c.547 0 1.02-.093 1.42-.28.4-.187.773-.533 1.12-1.04l6.34-9.36c.267-.427.58-.773.94-1.04s.793-.4 1.3-.4h4.6l-7.86 11.6c-.333.507-.72.927-1.16 1.26-.44.333-.927.593-1.46.78.8.227 1.473.587 2.02 1.08.56.48 1.093 1.147 1.6 2l7.58 12.2zm27.691-28.92V225h-5.4v-18.12c0-.68.014-1.393.04-2.14.04-.747.12-1.54.24-2.38-.266.747-.56 1.44-.88 2.08-.306.627-.606 1.18-.9 1.66l-11.06 17.24c-.12.2-.266.4-.44.6-.16.2-.34.38-.54.54-.2.147-.42.273-.66.38a2.03 2.03 0 0 1-.74.14h-4.04v-28.92h5.4v18.12c0 .68-.02 1.4-.06 2.16-.026.747-.1 1.54-.22 2.38.267-.747.554-1.44.86-2.08.32-.64.634-1.2.94-1.68l11.04-17.24c.12-.2.26-.4.42-.6.174-.2.36-.373.56-.52.2-.16.414-.287.64-.38.24-.107.494-.16.76-.16h4.04zm30.821 0V225h-5.4v-18.12c0-.68.013-1.393.04-2.14.04-.747.12-1.54.24-2.38-.267.747-.56 1.44-.88 2.08a20.53 20.53 0 0 1-.9 1.66l-11.06 17.24c-.12.2-.267.4-.44.6-.16.2-.34.38-.54.54-.2.147-.42.273-.66.38-.24.093-.487.14-.74.14h-4.04v-28.92h5.4v18.12c0 .68-.02 1.4-.06 2.16-.027.747-.1 1.54-.22 2.38.266-.747.553-1.44.86-2.08.32-.64.633-1.2.94-1.68l11.04-17.24c.12-.2.26-.4.42-.6.173-.2.36-.373.56-.52a2.6 2.6 0 0 1 .64-.38c.24-.107.493-.16.76-.16h4.04zm-11.94-4.18c.493 0 .906-.047 1.24-.14.333-.093.6-.253.8-.48.2-.24.34-.56.42-.96.08-.4.12-.907.12-1.52h2.92c.346 0 .6.147.76.44.173.293.26.613.26.96 0 .68-.154 1.28-.46 1.8-.307.52-.747.953-1.32 1.3-.574.347-1.26.613-2.06.8-.8.173-1.694.26-2.68.26-.987 0-1.88-.087-2.68-.26-.8-.187-1.487-.453-2.06-.8-.574-.347-1.014-.78-1.32-1.3-.307-.52-.46-1.12-.46-1.8 0-.347.08-.667.24-.96a.849.849 0 0 1 .78-.44h2.92c0 .613.04 1.12.12 1.52.08.4.22.72.42.96.2.227.46.387.78.48.333.093.753.14 1.26.14zM320.56 246.8c1.12-.96 2.447-1.707 3.98-2.24 1.547-.533 3.26-.8 5.14-.8 1.56 0 2.967.187 4.22.56 1.267.373 2.34.9 3.22 1.58a6.822 6.822 0 0 1 2.02 2.4c.48.92.72 1.933.72 3.04 0 1.36-.313 2.593-.94 3.7-.613 1.093-1.547 1.98-2.8 2.66.667.32 1.273.7 1.82 1.14.56.427 1.033.907 1.42 1.44.4.52.707 1.087.92 1.7.227.613.34 1.267.34 1.96a9.073 9.073 0 0 1-.74 3.66 8.3 8.3 0 0 1-2.12 2.96c-.92.84-2.053 1.507-3.4 2-1.347.48-2.887.72-4.62.72-1.013 0-2.007-.093-2.98-.28-.96-.173-1.88-.427-2.76-.76a15.16 15.16 0 0 1-2.48-1.2 11.81 11.81 0 0 1-2.06-1.56l1.58-2.58a1.9 1.9 0 0 1 .52-.46c.213-.133.447-.2.7-.2.347 0 .727.14 1.14.42.413.267.913.567 1.5.9.587.333 1.28.64 2.08.92.813.267 1.787.4 2.92.4 1.8 0 3.193-.387 4.18-1.16.987-.773 1.48-1.96 1.48-3.56 0-.653-.133-1.24-.4-1.76a3.73 3.73 0 0 0-1.14-1.32c-.493-.36-1.093-.633-1.8-.82-.693-.2-1.467-.3-2.32-.3h-4.08l-.02-4.32h3.72c1.667 0 2.967-.327 3.9-.98.947-.667 1.42-1.627 1.42-2.88 0-1.107-.447-1.987-1.34-2.64-.88-.667-2.16-1-3.84-1-.973 0-1.813.107-2.52.32-.693.213-1.3.447-1.82.7-.507.24-.94.467-1.3.68-.347.213-.66.32-.94.32-.267 0-.493-.067-.68-.2-.187-.133-.36-.333-.52-.6l-1.32-2.56zm40.044 15.28l-3.52-9.62a21.38 21.38 0 0 1-.54-1.52 49.692 49.692 0 0 1-.56-1.9c-.173.68-.353 1.32-.54 1.92-.187.587-.367 1.1-.54 1.54l-3.5 9.58h9.2zm9.5 10.92h-4.16c-.467 0-.847-.113-1.14-.34a2.262 2.262 0 0 1-.66-.88l-2.16-5.9h-11.98l-2.16 5.9c-.107.307-.313.587-.62.84s-.693.38-1.16.38h-4.18l11.36-28.92h5.5l11.36 28.92zm13.756-4.2c1 0 1.84-.12 2.52-.36.68-.24 1.22-.56 1.62-.96.414-.4.707-.867.88-1.4a5.1 5.1 0 0 0 .28-1.7c0-.627-.1-1.187-.3-1.68a3.08 3.08 0 0 0-.94-1.28c-.426-.36-.98-.633-1.66-.82-.666-.187-1.473-.28-2.42-.28h-5.42v8.48h5.44zm-5.44-20.56v8.36h4.28c1.84 0 3.227-.333 4.16-1 .947-.667 1.42-1.727 1.42-3.18 0-1.507-.426-2.58-1.28-3.22-.853-.64-2.186-.96-4-.96h-4.58zm4.58-4.16c1.894 0 3.514.18 4.86.54 1.347.36 2.447.873 3.3 1.54.867.667 1.5 1.473 1.9 2.42.4.947.6 2.013.6 3.2 0 .68-.1 1.333-.3 1.96a5.683 5.683 0 0 1-.94 1.74c-.413.533-.946 1.02-1.6 1.46-.64.44-1.406.813-2.3 1.12 3.974.893 5.96 3.04 5.96 6.44 0 1.227-.233 2.36-.7 3.4a7.576 7.576 0 0 1-2.04 2.7c-.893.747-1.993 1.333-3.3 1.76-1.306.427-2.8.64-4.48.64h-10.92v-28.92H383zm43.948 14.46c0 2.12-.353 4.087-1.06 5.9-.693 1.8-1.68 3.36-2.96 4.68-1.28 1.32-2.82 2.353-4.62 3.1-1.8.733-3.8 1.1-6 1.1-2.186 0-4.18-.367-5.98-1.1-1.8-.747-3.346-1.78-4.64-3.1-1.28-1.32-2.273-2.88-2.98-4.68-.706-1.813-1.06-3.78-1.06-5.9 0-2.12.354-4.08 1.06-5.88.707-1.813 1.7-3.38 2.98-4.7 1.294-1.32 2.84-2.347 4.64-3.08 1.8-.747 3.794-1.12 5.98-1.12 1.467 0 2.847.173 4.14.52 1.294.333 2.48.813 3.56 1.44a12.57 12.57 0 0 1 2.9 2.26c.867.88 1.6 1.867 2.2 2.96.6 1.093 1.054 2.28 1.36 3.56.32 1.28.48 2.627.48 4.04zm-5.5 0c0-1.587-.213-3.007-.64-4.26-.426-1.267-1.033-2.34-1.82-3.22a7.768 7.768 0 0 0-2.88-2.02c-1.12-.467-2.386-.7-3.8-.7-1.413 0-2.686.233-3.82.7a8.002 8.002 0 0 0-2.88 2.02c-.786.88-1.393 1.953-1.82 3.22-.426 1.253-.64 2.673-.64 4.26 0 1.587.214 3.013.64 4.28.427 1.253 1.034 2.32 1.82 3.2.8.867 1.76 1.533 2.88 2 1.134.467 2.407.7 3.82.7 1.414 0 2.68-.233 3.8-.7a7.873 7.873 0 0 0 2.88-2c.787-.88 1.394-1.947 1.82-3.2.427-1.267.64-2.693.64-4.28zm27.489 10.32v-20.64h-7.9c-.16 2.84-.38 5.36-.66 7.56-.266 2.2-.58 4.133-.94 5.8-.36 1.667-.76 3.093-1.2 4.28-.44 1.187-.913 2.187-1.42 3h12.12zm9.9 0v9.48c0 .467-.16.84-.48 1.12-.306.28-.713.42-1.22.42h-3.24V273h-21.24v5.34c0 .467-.16.84-.48 1.12-.306.28-.713.42-1.22.42h-3.24v-11.02h3.16c.374-.2.74-.52 1.1-.96.374-.44.734-1.06 1.08-1.86.347-.8.674-1.813.98-3.04.32-1.227.607-2.72.86-4.48.254-1.773.467-3.847.64-6.22.187-2.373.327-5.113.42-8.22h18.38v24.78h4.5z" fill="#007095"/><path fill-rule="evenodd" clip-rule="evenodd" d="M203.984 273l-79.09-136.899H0l107.584-29.24L45.804 0H433l-64.977 18.076H153.387v13.025h162.708l-52.46 14.355H153.387v13.822h58.586l-89.21 23.925 9.853 17.544 202.386-54.494L203.984 273zm-50.597-136.367l50.331 88.253 52.194-88.253H153.387z" fill="url(#b)"/></g><defs><linearGradient id="b" x1="216.5" x2="216.5" y2="273" gradientUnits="userSpaceOnUse"><stop stop-color="#3789A8"/><stop offset="1" stop-color="#007095"/></linearGradient><clipPath id="a"><path fill="#fff" d="M0 0h803v280H0z"/></clipPath></defs></svg>